<svg xmlns="http://www.w3.org/2000/svg" fill="none" viewBox="0 0 24 24" stroke-width="0.5" stroke="gold" class="size-6">
    <path stroke-linecap="round" stroke-linejoin="round"
          d="M 21 12 C 21 10.871 19.993 9.955 18.75 9.955 L 15 9.955 C 15 12.053 12.5 13.366 10.5 12.316 C 9.572 11.829 9 10.928 9 9.955 L 5.25 9.955 C 4.007 9.955 3 10.871 3 12 M 21 12 L 21 17.453 C 21 18.583 19.993 19.498 18.75 19.498 L 5.25 19.498 C 4.007 19.498 3 18.583 3 17.453 L 3 12 M 21 12 L 21 9.273 M 3 12 L 3 9.273 M 21 9.273 C 21 8.144 19.993 7.228 18.75 7.228 L 5.25 7.228 C 4.007 7.228 3 8.144 3 9.273 M 21 9.273 L 21 6.547 C 21 5.417 19.993 4.502 18.75 4.502 L 5.25 4.502 C 4.007 4.502 3 5.417 3 6.547 L 3 9.273"/>
</svg>